<?xml version="1.0" encoding="UTF-8"?>
<svg width="6px" height="10px" viewBox="0 0 6 10" version="1.1" xmlns="http://www.w3.org/2000/svg" xmlns:xlink="http://www.w3.org/1999/xlink">
    <!-- Generator: Sketch 53.1 (72631) - https://sketchapp.com -->
    <title>2</title>
    <desc>Created with Sketch.</desc>
    <g id="Page-1" stroke="none" stroke-width="1" fill="none" fill-rule="evenodd">
        <path d="M5.74553571,4.78125 C5.81250033,4.84821462 5.84598214,4.92522278 5.84598214,5.01227679 C5.84598214,5.09933079 5.81250033,5.17633895 5.74553571,5.24330357 L1.06473214,9.92410714 C0.997767522,9.99107176 0.920759364,10.0245536 0.833705357,10.0245536 C0.74665135,10.0245536 0.669643192,9.99107176 0.602678571,9.92410714 L0.100446429,9.421875 C0.033481808,9.35491038 0,9.27790222 0,9.19084821 C0,9.10379421 0.033481808,9.02678605 0.100446429,8.95982143 L4.04799107,5.01227679 L0.100446429,1.06473214 C0.033481808,0.997767522 0,0.920759364 0,0.833705357 C0,0.74665135 0.033481808,0.669643192 0.100446429,0.602678571 L0.602678571,0.100446429 C0.669643192,0.033481808 0.74665135,0 0.833705357,0 C0.920759364,0 0.997767522,0.033481808 1.06473214,0.100446429 L5.74553571,4.78125 Z" id="2" fill="#28BCFF" fill-rule="nonzero" transform="translate(2.922991, 5.012277) scale(-1, 1) translate(-2.922991, -5.012277) "></path>
    </g>
</svg>